solid "Geom-1<stl unit=M>"
   facet normal -0.0788019829550858 0 -0.996890288588642
      outer loop
         vertex 0.0320293001453675 -0.0106019581497935 0.0815630916752764
         vertex 0.0249588225122506 -0.0106019581497935 0.0821219973686181
         vertex 0.0320293001453675 -0.0105019581497935 0.0815630916752764
      endloop
   endfacet
   facet normal -0.0788019829550979 8.59867258471443E-13 -0.996890288588641
      outer loop
         vertex 0.0320293001453675 -0.0105019581497935 0.0815630916752764
         vertex 0.0249588225122506 -0.0106019581497935 0.0821219973686181
         vertex 0.0249588225122485 -0.0105019581497935 0.0821219973686183
      endloop
   endfacet
   facet normal -0.136195128776966 -3.41504272996235E-13 -0.990682031177222
      outer loop
         vertex 0.0249588225122506 -0.0106019581497935 0.0821219973686181
         vertex 0.0232093403259655 -0.0106019581497935 0.0823625094039186
         vertex 0.0249588225122485 -0.0105019581497935 0.0821219973686183
      endloop
   endfacet
   facet normal -0.136195128776985 0 -0.990682031177219
      outer loop
         vertex 0.0249588225122485 -0.0105019581497935 0.0821219973686183
         vertex 0.0232093403259655 -0.0106019581497935 0.0823625094039186
         vertex 0.0232093403259655 -0.0105019581497935 0.0823625094039186
      endloop
   endfacet
   facet normal -0.174355708845742 0 -0.984682734078799
      outer loop
         vertex 0.0232093403259655 -0.0106019581497935 0.0823625094039186
         vertex 0.0214719518761984 -0.0106019581497935 0.0826701451369478
         vertex 0.0232093403259655 -0.0105019581497935 0.0823625094039186
      endloop
   endfacet
   facet normal -0.174355708845393 -6.25524194190731E-12 -0.984682734078861
      outer loop
         vertex 0.0232093403259655 -0.0105019581497935 0.0823625094039186
         vertex 0.0214719518761984 -0.0106019581497935 0.0826701451369478
         vertex 0.0214719518762262 -0.0105019581497935 0.0826701451369423
      endloop
   endfacet
   facet normal -0.217438622280731 6.18343785876629E-12 -0.976073995935071
      outer loop
         vertex 0.0214719518761984 -0.0106019581497935 0.0826701451369478
         vertex 0.0197492251550214 -0.0106019581497935 0.0830539145298207
         vertex 0.0214719518762262 -0.0105019581497935 0.0826701451369423
      endloop
   endfacet
   facet normal -0.217438622280389 0 -0.976073995935148
      outer loop
         vertex 0.0214719518762262 -0.0105019581497935 0.0826701451369423
         vertex 0.0197492251550214 -0.0106019581497935 0.0830539145298207
         vertex 0.0197492251550214 -0.0105019581497935 0.0830539145298207
      endloop
   endfacet
   facet normal -0.261466339980845 0 -0.965212594746371
      outer loop
         vertex 0.0197492251550214 -0.0106019581497935 0.0830539145298207
         vertex 0.0180439639488914 -0.0106019581497935 0.0835158525616128
         vertex 0.0197492251550214 -0.0105019581497935 0.0830539145298207
      endloop
   endfacet
   facet normal -0.261466339980845 0 -0.965212594746371
      outer loop
         vertex 0.0197492251550214 -0.0105019581497935 0.0830539145298207
         vertex 0.0180439639488914 -0.0106019581497935 0.0835158525616128
         vertex 0.0180439639488914 -0.0105019581497935 0.0835158525616128
      endloop
   endfacet
   facet normal -0.305967230029494 0 -0.952042044317413
      outer loop
         vertex 0.0180439639488914 -0.0106019581497935 0.0835158525616128
         vertex 0.0163589932007489 -0.0106019581497935 0.0840573683860106
         vertex 0.0180439639488914 -0.0105019581497935 0.0835158525616128
      endloop
   endfacet
   facet normal -0.305967230029485 -1.68703148293825E-13 -0.952042044317416
      outer loop
         vertex 0.0180439639488914 -0.0105019581497935 0.0835158525616128
         vertex 0.0163589932007489 -0.0106019581497935 0.0840573683860106
         vertex 0.0163589932007489 -0.0105019581497935 0.0840573683860106
      endloop
   endfacet
   facet normal -0.350781064046509 -1.50387702487006E-13 -0.936457497757586
      outer loop
         vertex 0.0163589932007489 -0.0106019581497935 0.0840573683860106
         vertex 0.0146971378535342 -0.0106019581497935 0.0846798711567004
         vertex 0.0163589932007489 -0.0105019581497935 0.0840573683860106
      endloop
   endfacet
   facet normal -0.35078106404649 -4.98782774107028E-13 -0.936457497757593
      outer loop
         vertex 0.0163589932007489 -0.0105019581497935 0.0840573683860106
         vertex 0.0146971378535342 -0.0106019581497935 0.0846798711567004
         vertex 0.0146971378535355 -0.0105019581497935 0.0846798711566998
      endloop
   endfacet
   facet normal -0.395717187389233 1.84772539388908E-13 -0.918372423151281
      outer loop
         vertex 0.0146971378535342 -0.0106019581497935 0.0846798711567004
         vertex 0.0130612228501878 -0.0106019581497935 0.0853847700273685
         vertex 0.0146971378535355 -0.0105019581497935 0.0846798711566998
      endloop
   endfacet
   facet normal -0.395717187389218 -9.51017257824987E-14 -0.918372423151287
      outer loop
         vertex 0.0146971378535355 -0.0105019581497935 0.0846798711566998
         vertex 0.0130612228501878 -0.0106019581497935 0.0853847700273685
         vertex 0.0130612228501885 -0.0105019581497935 0.0853847700273682
      endloop
   endfacet
   facet normal -0.440556031507983 2.57281148354904E-13 -0.89772511555706
      outer loop
         vertex 0.0130612228501878 -0.0106019581497935 0.0853847700273685
         vertex 0.0114540731336501 -0.0106019581497935 0.0861734741517013
         vertex 0.0130612228501885 -0.0105019581497935 0.0853847700273682
      endloop
   endfacet
   facet normal -0.44055603150797 0 -0.897725115557067
      outer loop
         vertex 0.0130612228501885 -0.0105019581497935 0.0853847700273682
         vertex 0.0114540731336501 -0.0106019581497935 0.0861734741517013
         vertex 0.0114540731336501 -0.0105019581497935 0.0861734741517013
      endloop
   endfacet
   facet normal -0.485052309593016 0 -0.874485138214756
      outer loop
         vertex 0.0114540731336501 -0.0106019581497935 0.0861734741517013
         vertex 0.00987851364686144 -0.0106019581497935 0.0870473926833852
         vertex 0.0114540731336501 -0.0105019581497935 0.0861734741517013
      endloop
   endfacet
   facet normal -0.485052309593014 -3.29090974421605E-14 -0.874485138214757
      outer loop
         vertex 0.0114540731336501 -0.0105019581497935 0.0861734741517013
         vertex 0.00987851364686144 -0.0106019581497935 0.0870473926833852
         vertex 0.00987851364686143 -0.0105019581497935 0.0870473926833852
      endloop
   endfacet
   facet normal -0.528929667369459 -3.67018684450558E-14 -0.848665662658996
      outer loop
         vertex 0.00987851364686144 -0.0106019581497935 0.0870473926833852
         vertex 0.00833747142194253 -0.0106019581497935 0.0880078450585583
         vertex 0.00987851364686143 -0.0105019581497935 0.0870473926833852
      endloop
   endfacet
   facet normal -0.528929667369453 -1.749257172804E-13 -0.848665662659
      outer loop
         vertex 0.00987851364686143 -0.0105019581497935 0.0870473926833852
         vertex 0.00833747142194253 -0.0106019581497935 0.0880078450585583
         vertex 0.00833747142194249 -0.0105019581497935 0.0880078450585583
      endloop
   endfacet
   facet normal -0.571719759934403 -1.88437380955218E-13 -0.820448972271005
      outer loop
         vertex 0.00833747142194253 -0.0106019581497935 0.0880078450585583
         vertex 0.00683685164689057 -0.0106019581497935 0.0890535334639819
         vertex 0.00833747142194249 -0.0105019581497935 0.0880078450585583
      endloop
   endfacet
   facet normal -0.571719759934476 1.42752689384289E-12 -0.820448972270955
      outer loop
         vertex 0.00833747142194249 -0.0105019581497935 0.0880078450585583
         vertex 0.00683685164689057 -0.0106019581497935 0.0890535334639819
         vertex 0.0068368516468862 -0.0105019581497935 0.0890535334639851
      endloop
   endfacet
   facet normal -0.613319482777937 -1.37606613928814E-12 -0.789834927086036
      outer loop
         vertex 0.00683685164689057 -0.0106019581497935 0.0890535334639819
         vertex 0.00538593649935665 -0.0106019581497935 0.0901801923357581
         vertex 0.0068368516468862 -0.0105019581497935 0.0890535334639851
      endloop
   endfacet
   facet normal -0.613319482777996 0 -0.78983492708599
      outer loop
         vertex 0.0068368516468862 -0.0105019581497935 0.0890535334639851
         vertex 0.00538593649935665 -0.0106019581497935 0.0901801923357581
         vertex 0.00538593649935665 -0.0105019581497935 0.0901801923357581
      endloop
   endfacet
   facet normal -0.654006178542804 0 -0.756489205757648
      outer loop
         vertex 0.00538593649935665 -0.0106019581497935 0.0901801923357581
         vertex 0.00399419040810661 -0.0106019581497935 0.0913833959448945
         vertex 0.00538593649935665 -0.0105019581497935 0.0901801923357581
      endloop
   endfacet
   facet normal -0.654006178543422 1.50116086293683E-11 -0.756489205757115
      outer loop
         vertex 0.00538593649935665 -0.0105019581497935 0.0901801923357581
         vertex 0.00399419040810661 -0.0106019581497935 0.0913833959448945
         vertex 0.00399419040806579 -0.0105019581497935 0.0913833959449318
      endloop
   endfacet
   facet normal -0.69398442730363 -1.49133519082178E-11 -0.719990010111288
      outer loop
         vertex 0.00399419040810661 -0.0106019581497935 0.0913833959448945
         vertex 0.00267107780190628 -0.0106019581497935 0.0926587185623989
         vertex 0.00399419040806579 -0.0105019581497935 0.0913833959449318
      endloop
   endfacet
   facet normal -0.693984427304215 0 -0.719990010110725
      outer loop
         vertex 0.00399419040806579 -0.0105019581497935 0.0913833959449318
         vertex 0.00267107780190628 -0.0106019581497935 0.0926587185623989
         vertex 0.00267107780190628 -0.0105019581497935 0.0926587185623989
      endloop
   endfacet
   facet normal -0.733357263643429 0 -0.679843455408245
      outer loop
         vertex 0.00267107780190628 -0.0106019581497935 0.0926587185623989
         vertex 0.00142606310952149 -0.0106019581497935 0.094001734459279
         vertex 0.00267107780190628 -0.0105019581497935 0.0926587185623989
      endloop
   endfacet
   facet normal -0.733357263643428 -1.3875735183566E-14 -0.679843455408246
      outer loop
         vertex 0.00267107780190628 -0.0105019581497935 0.0926587185623989
         vertex 0.00142606310952149 -0.0106019581497935 0.094001734459279
         vertex 0.00142606310952149 -0.0105019581497935 0.094001734459279
      endloop
   endfacet
   facet normal -0.772108951065055 -1.50681996385246E-14 -0.635490179062762
      outer loop
         vertex 0.00142606310952149 -0.0106019581497935 0.094001734459279
         vertex 0.000268610759718093 -0.0106019581497935 0.0954080179065425
         vertex 0.00142606310952149 -0.0105019581497935 0.094001734459279
      endloop
   endfacet
   facet normal -0.772108951065055 0 -0.635490179062761
      outer loop
         vertex 0.00142606310952149 -0.0105019581497935 0.094001734459279
         vertex 0.000268610759718093 -0.0106019581497935 0.0954080179065425
         vertex 0.000268610759718093 -0.0105019581497935 0.0954080179065425
      endloop
   endfacet
   facet normal -0.810080570348345 0 -0.58631857342583
      outer loop
         vertex 0.000268610759718093 -0.0106019581497935 0.0954080179065425
         vertex -0.000791814818738087 -0.0106019581497935 0.0968731431751972
         vertex 0.000268610759718093 -0.0105019581497935 0.0954080179065425
      endloop
   endfacet
   facet normal -0.810080570348344 -2.8099915319008E-14 -0.586318573425831
      outer loop
         vertex 0.000268610759718093 -0.0105019581497935 0.0954080179065425
         vertex -0.000791814818738087 -0.0106019581497935 0.0968731431751972
         vertex -0.000791814818738091 -0.0105019581497935 0.0968731431751972
      endloop
   endfacet
   facet normal -0.846939244128946 -2.93841077903304E-14 -0.531689680880013
      outer loop
         vertex -0.000791814818738087 -0.0106019581497935 0.0968731431751972
         vertex -0.00174574919708121 -0.0106019581497935 0.0983926845362508
         vertex -0.000791814818738091 -0.0105019581497935 0.0968731431751972
      endloop
   endfacet
   facet normal -0.846939244128947 0 -0.531689680880011
      outer loop
         vertex -0.000791814818738091 -0.0105019581497935 0.0968731431751972
         vertex -0.00174574919708121 -0.0106019581497935 0.0983926845362508
         vertex -0.00174574919708121 -0.0105019581497935 0.0983926845362508
      endloop
   endfacet
   facet normal -0.873484025125614 0 -0.486852809225084
      outer loop
         vertex -0.00174574919708121 -0.0106019581497935 0.0983926845362508
         vertex -0.00217982455222105 -0.0106019581497935 0.099171478211117
         vertex -0.00174574919708121 -0.0105019581497935 0.0983926845362508
      endloop
   endfacet
   facet normal -0.873484025125607 -1.2053381701729E-13 -0.486852809225096
      outer loop
         vertex -0.00174574919708121 -0.0105019581497935 0.0983926845362508
         vertex -0.00217982455222105 -0.0106019581497935 0.099171478211117
         vertex -0.00217982455222106 -0.0105019581497935 0.099171478211117
      endloop
   endfacet
   facet normal -0.890549487907514 -1.17198163803324E-13 -0.454886369973496
      outer loop
         vertex -0.00217982455222105 -0.0106019581497935 0.099171478211117
         vertex -0.00258372794654544 -0.0106019581497935 0.0999622162607109
         vertex -0.00217982455222106 -0.0105019581497935 0.099171478211117
      endloop
   endfacet
   facet normal -0.890549487907679 3.09079879897336E-12 -0.454886369973174
      outer loop
         vertex -0.00217982455222106 -0.0105019581497935 0.099171478211117
         vertex -0.00258372794654544 -0.0106019581497935 0.0999622162607109
         vertex -0.00258372794655298 -0.0105019581497935 0.0999622162607264
      endloop
   endfacet
   facet normal -0.90695227823958 -3.34396472261587E-12 -0.421233385424323
      outer loop
         vertex -0.00258372794654544 -0.0106019581497935 0.0999622162607109
         vertex -0.00295627632645865 -0.0106019581497935 0.100764345468908
         vertex -0.00258372794655298 -0.0105019581497935 0.0999622162607264
      endloop
   endfacet
   facet normal -0.906952278239757 3.8009674588657E-13 -0.421233385423941
      outer loop
         vertex -0.00258372794655298 -0.0105019581497935 0.0999622162607264
         vertex -0.00295627632645865 -0.0106019581497935 0.100764345468908
         vertex -0.00295627632645933 -0.0105019581497935 0.10076434546891
      endloop
   endfacet
   facet normal -0.922562818386019 -2.76268313006963E-13 -0.385846920593706
      outer loop
         vertex -0.00295627632645865 -0.0106019581497935 0.100764345468908
         vertex -0.00329628663836494 -0.0106019581497935 0.101577312619585
         vertex -0.00295627632645933 -0.0105019581497935 0.10076434546891
      endloop
   endfacet
   facet normal -0.922562818386031 0 -0.385846920593677
      outer loop
         vertex -0.00295627632645933 -0.0105019581497935 0.10076434546891
         vertex -0.00329628663836494 -0.0106019581497935 0.101577312619585
         vertex -0.00329628663836494 -0.0105019581497935 0.101577312619585
      endloop
   endfacet
   facet normal -0.937235651104206 0 -0.348696622150653
      outer loop
         vertex -0.00329628663836494 -0.0106019581497935 0.101577312619585
         vertex -0.00360257582866859 -0.0106019581497935 0.102400564496618
         vertex -0.00329628663836494 -0.0105019581497935 0.101577312619585
      endloop
   endfacet
   facet normal -0.937235651104208 4.0380453695493E-14 -0.348696622150648
      outer loop
         vertex -0.00329628663836494 -0.0105019581497935 0.101577312619585
         vertex -0.00360257582866859 -0.0106019581497935 0.102400564496618
         vertex -0.00360257582866859 -0.0105019581497935 0.102400564496618
      endloop
   endfacet
   facet normal -0.950810553242713 3.47426682765083E-14 -0.309772968223967
      outer loop
         vertex -0.00360257582866859 -0.0106019581497935 0.102400564496618
         vertex -0.00387396084377387 -0.0106019581497935 0.103233547883882
         vertex -0.00360257582866859 -0.0105019581497935 0.102400564496618
      endloop
   endfacet
   facet normal -0.950810553242719 2.08476481748911E-13 -0.309772968223948
      outer loop
         vertex -0.00360257582866859 -0.0105019581497935 0.102400564496618
         vertex -0.00387396084377387 -0.0106019581497935 0.103233547883882
         vertex -0.0038739608437743 -0.0105019581497935 0.103233547883883
      endloop
   endfacet
   facet normal -0.963071385390053 -4.06701717382047E-13 -0.269246182225272
      outer loop
         vertex -0.00387396084377387 -0.0106019581497935 0.103233547883882
         vertex -0.00410940316053103 -0.0106019581497935 0.104075705630762
         vertex -0.0038739608437743 -0.0105019581497935 0.103233547883883
      endloop
   endfacet
   facet normal -0.963071385390065 -1.21080818440367E-14 -0.269246182225229
      outer loop
         vertex -0.0038739608437743 -0.0105019581497935 0.103233547883883
         vertex -0.00410940316053103 -0.0106019581497935 0.104075705630762
         vertex -0.00410940316053102 -0.0105019581497935 0.104075705630762
      endloop
   endfacet
   facet normal -0.973316973647023 -6.5180932314376E-15 -0.229464744156047
      outer loop
         vertex -0.00410940316053103 -0.0106019581497935 0.104075705630762
         vertex -0.0043099644818177 -0.0106019581497935 0.104926423413066
         vertex -0.00410940316053102 -0.0105019581497935 0.104075705630762
      endloop
   endfacet
   facet normal -0.973316973647023 3.93697324826423E-15 -0.229464744156046
      outer loop
         vertex -0.00410940316053102 -0.0105019581497935 0.104075705630762
         vertex -0.0043099644818177 -0.0106019581497935 0.104926423413066
         vertex -0.00430996448181769 -0.0105019581497935 0.104926423413066
      endloop
   endfacet
   facet normal -0.984510105791767 1.9650860416805E-14 -0.175327840327436
      outer loop
         vertex -0.0043099644818177 -0.0106019581497935 0.104926423413066
         vertex -0.00461707171378815 -0.0106019581497935 0.106650908086304
         vertex -0.00430996448181769 -0.0105019581497935 0.104926423413066
      endloop
   endfacet
   facet normal -0.984510105791767 -4.83571996580562E-15 -0.175327840327437
      outer loop
         vertex -0.00430996448181769 -0.0105019581497935 0.104926423413066
         vertex -0.00461707171378815 -0.0106019581497935 0.106650908086304
         vertex -0.00461707171378815 -0.0105019581497935 0.106650908086304
      endloop
   endfacet
   facet normal -0.993560389377081 2.17699155856492E-14 -0.113303806912492
      outer loop
         vertex -0.00461707171378815 -0.0106019581497935 0.106650908086304
         vertex -0.00481673276221244 -0.0106019581497935 0.108401734597977
         vertex -0.00461707171378815 -0.0105019581497935 0.106650908086304
      endloop
   endfacet
   facet normal -0.993560389377081 0 -0.113303806912493
      outer loop
         vertex -0.00461707171378815 -0.0105019581497935 0.106650908086304
         vertex -0.00481673276221244 -0.0106019581497935 0.108401734597977
         vertex -0.00481673276221244 -0.0105019581497935 0.108401734597977
      endloop
   endfacet
   facet normal -0.997947396317669 0 -0.064039005167049
      outer loop
         vertex -0.00481673276221244 -0.0106019581497935 0.108401734597977
         vertex -0.00493043686379978 -0.0106019581497935 0.110173634580398
         vertex -0.00481673276221244 -0.0105019581497935 0.108401734597977
      endloop
   endfacet
   facet normal -0.997947396317639 -8.38901791340887E-12 -0.0640390051675205
      outer loop
         vertex -0.00481673276221244 -0.0105019581497935 0.108401734597977
         vertex -0.00493043686379978 -0.0106019581497935 0.110173634580398
         vertex -0.00493043686379798 -0.0105019581497935 0.110173634580357
      endloop
   endfacet
   facet normal -0.999620943718988 6.64793155792998E-12 -0.0275312345956399
      outer loop
         vertex -0.00493043686379978 -0.0106019581497935 0.110173634580398
         vertex -0.00497967325525943 -0.0106019581497935 0.111961339665879
         vertex -0.00493043686379798 -0.0105019581497935 0.110173634580357
      endloop
   endfacet
   facet normal -0.999620943718977 -6.20530121428751E-13 -0.0275312345960461
      outer loop
         vertex -0.00493043686379798 -0.0105019581497935 0.110173634580357
         vertex -0.00497967325525943 -0.0106019581497935 0.111961339665879
         vertex -0.00497967325525937 -0.0105019581497935 0.111961339665875
      endloop
   endfacet
   facet normal -0.999996896480463 7.08771980841081E-13 0.00249139106588853
      outer loop
         vertex -0.00497967325525943 -0.0106019581497935 0.111961339665879
         vertex -0.00497069985463254 -0.0106019581497935 0.115563091675276
         vertex -0.00497967325525937 -0.0105019581497935 0.111961339665875
      endloop
   endfacet
   facet normal -0.999996896480463 0 0.00249139106586886
      outer loop
         vertex -0.00497967325525937 -0.0105019581497935 0.111961339665875
         vertex -0.00497069985463254 -0.0106019581497935 0.115563091675276
         vertex -0.00497069985463254 -0.0105019581497935 0.115563091675276
      endloop
   endfacet
   facet normal 0 0 1
      outer loop
         vertex -0.00497069985463254 -0.0106019581497935 0.115563091675276
         vertex -0.0005891322481999 -0.0106019581497935 0.115563091675276
         vertex -0.00497069985463254 -0.0105019581497935 0.115563091675276
      endloop
   endfacet
   facet normal 0 0 1
      outer loop
         vertex -0.00497069985463254 -0.0105019581497935 0.115563091675276
         vertex -0.0005891322481999 -0.0106019581497935 0.115563091675276
         vertex -0.0005891322481999 -0.0105019581497935 0.115563091675276
      endloop
   endfacet
   facet normal -3.16731112112484E-15 0 1
      outer loop
         vertex -0.0005891322481999 -0.0106019581497935 0.115563091675276
         vertex 0.00379243535823274 -0.0106019581497935 0.115563091675276
         vertex -0.0005891322481999 -0.0105019581497935 0.115563091675276
      endloop
   endfacet
   facet normal -3.16731112112484E-15 0 1
      outer loop
         vertex -0.0005891322481999 -0.0105019581497935 0.115563091675276
         vertex 0.00379243535823274 -0.0106019581497935 0.115563091675276
         vertex 0.00379243535823274 -0.0105019581497935 0.115563091675276
      endloop
   endfacet
   facet normal 0.277454546443071 0 0.960738765043896
      outer loop
         vertex 0.00379243535823274 -0.0106019581497935 0.115563091675276
         vertex 0.00611470476768404 -0.0106019581497935 0.114892436728103
         vertex 0.00379243535823274 -0.0105019581497935 0.115563091675276
      endloop
   endfacet
   facet normal 0.277454546443071 4.38029166848945E-15 0.960738765043896
      outer loop
         vertex 0.00379243535823274 -0.0105019581497935 0.115563091675276
         vertex 0.00611470476768404 -0.0106019581497935 0.114892436728103
         vertex 0.00611470476768403 -0.0105019581497935 0.114892436728103
      endloop
   endfacet
   facet normal 0.277454546443066 4.81306915231287E-15 0.960738765043897
      outer loop
         vertex 0.00611470476768404 -0.0106019581497935 0.114892436728103
         vertex 0.00843697417713533 -0.0106019581497935 0.11422178178093
         vertex 0.00611470476768403 -0.0105019581497935 0.114892436728103
      endloop
   endfacet
   facet normal 0.277454546443066 0 0.960738765043897
      outer loop
         vertex 0.00611470476768403 -0.0105019581497935 0.114892436728103
         vertex 0.00843697417713533 -0.0106019581497935 0.11422178178093
         vertex 0.00843697417713533 -0.0105019581497935 0.11422178178093
      endloop
   endfacet
   facet normal 0.32663481389228 0 0.945150622045796
      outer loop
         vertex 0.00843697417713533 -0.0106019581497935 0.11422178178093
         vertex 0.0109483332411933 -0.0106019581497935 0.113353880642876
         vertex 0.00843697417713533 -0.0105019581497935 0.11422178178093
      endloop
   endfacet
   facet normal 0.326634813892279 -6.37562129962483E-15 0.945150622045796
      outer loop
         vertex 0.00843697417713533 -0.0105019581497935 0.11422178178093
         vertex 0.0109483332411933 -0.0106019581497935 0.113353880642876
         vertex 0.0109483332411933 -0.0105019581497935 0.113353880642876
      endloop
   endfacet
   facet normal 0.326634813892273 -5.66621079730245E-15 0.945150622045799
      outer loop
         vertex 0.0109483332411933 -0.0106019581497935 0.113353880642876
         vertex 0.0134596923052513 -0.0106019581497935 0.112485979504823
         vertex 0.0109483332411933 -0.0105019581497935 0.113353880642876
      endloop
   endfacet
   facet normal 0.326634813892274 0 0.945150622045799
      outer loop
         vertex 0.0109483332411933 -0.0105019581497935 0.113353880642876
         vertex 0.0134596923052513 -0.0106019581497935 0.112485979504823
         vertex 0.0134596923052513 -0.0105019581497935 0.112485979504823
      endloop
   endfacet
   facet normal 0.376073173936125 0 0.926589967485948
      outer loop
         vertex 0.0134596923052513 -0.0106019581497935 0.112485979504823
         vertex 0.0158414890386905 -0.0106019581497935 0.111519284538715
         vertex 0.0134596923052513 -0.0105019581497935 0.112485979504823
      endloop
   endfacet
   facet normal 0.376073173936125 0 0.926589967485948
      outer loop
         vertex 0.0134596923052513 -0.0105019581497935 0.112485979504823
         vertex 0.0158414890386905 -0.0106019581497935 0.111519284538715
         vertex 0.0158414890386905 -0.0105019581497935 0.111519284538715
      endloop
   endfacet
   facet normal 0.37607317393612 0 0.92658996748595
      outer loop
         vertex 0.0158414890386905 -0.0106019581497935 0.111519284538715
         vertex 0.0182232857721298 -0.0106019581497935 0.110552589572607
         vertex 0.0158414890386905 -0.0105019581497935 0.111519284538715
      endloop
   endfacet
   facet normal 0.37607317393612 0 0.92658996748595
      outer loop
         vertex 0.0158414890386905 -0.0105019581497935 0.111519284538715
         vertex 0.0182232857721298 -0.0106019581497935 0.110552589572607
         vertex 0.0182232857721298 -0.0105019581497935 0.110552589572607
      endloop
   endfacet
   facet normal 0.4246935472631 0 0.905337169740139
      outer loop
         vertex 0.0182232857721298 -0.0106019581497935 0.110552589572607
         vertex 0.020534208473988 -0.0106019581497935 0.109468536037077
         vertex 0.0182232857721298 -0.0105019581497935 0.110552589572607
      endloop
   endfacet
   facet normal 0.424693547263101 1.49326796927153E-14 0.905337169740139
      outer loop
         vertex 0.0182232857721298 -0.0105019581497935 0.110552589572607
         vertex 0.020534208473988 -0.0106019581497935 0.109468536037077
         vertex 0.020534208473988 -0.0105019581497935 0.109468536037077
      endloop
   endfacet
   facet normal 0.424693547263097 1.47345173306633E-14 0.905337169740141
      outer loop
         vertex 0.020534208473988 -0.0106019581497935 0.109468536037077
         vertex 0.0228451311758463 -0.0106019581497935 0.108384482501548
         vertex 0.020534208473988 -0.0105019581497935 0.109468536037077
      endloop
   endfacet
   facet normal 0.424693547263096 0 0.905337169740141
      outer loop
         vertex 0.020534208473988 -0.0105019581497935 0.109468536037077
         vertex 0.0228451311758463 -0.0106019581497935 0.108384482501548
         vertex 0.0228451311758463 -0.0105019581497935 0.108384482501548
      endloop
   endfacet
   facet normal 0.47261326277473 0 0.881269938128735
      outer loop
         vertex 0.0228451311758463 -0.0106019581497935 0.108384482501548
         vertex 0.0250898211368177 -0.0106019581497935 0.107180685344203
         vertex 0.0228451311758463 -0.0105019581497935 0.108384482501548
      endloop
   endfacet
   facet normal 0.472613262774729 -1.66273446667167E-14 0.881269938128735
      outer loop
         vertex 0.0228451311758463 -0.0105019581497935 0.108384482501548
         vertex 0.0250898211368177 -0.0106019581497935 0.107180685344203
         vertex 0.0250898211368177 -0.0105019581497935 0.107180685344203
      endloop
   endfacet
   facet normal 0.472613262774733 -1.63970664398666E-14 0.881269938128733
      outer loop
         vertex 0.0250898211368177 -0.0106019581497935 0.107180685344203
         vertex 0.0273345110977891 -0.0106019581497935 0.105976888186859
         vertex 0.0250898211368177 -0.0105019581497935 0.107180685344203
      endloop
   endfacet
   facet normal 0.472613262774734 0 0.881269938128733
      outer loop
         vertex 0.0250898211368177 -0.0105019581497935 0.107180685344203
         vertex 0.0273345110977891 -0.0106019581497935 0.105976888186859
         vertex 0.0273345110977891 -0.0105019581497935 0.105976888186859
      endloop
   endfacet
   facet normal 0.511695314847203 0 0.859166983050106
      outer loop
         vertex 0.0273345110977891 -0.0106019581497935 0.105976888186859
         vertex 0.0287846287786922 -0.0106019581497935 0.105113239515607
         vertex 0.0273345110977891 -0.0105019581497935 0.105976888186859
      endloop
   endfacet
   facet normal 0.511695314847203 0 0.859166983050106
      outer loop
         vertex 0.0273345110977891 -0.0105019581497935 0.105976888186859
         vertex 0.0287846287786922 -0.0106019581497935 0.105113239515607
         vertex 0.0287846287786922 -0.0105019581497935 0.105113239515607
      endloop
   endfacet
   facet normal 0.511695314847146 0 0.859166983050141
      outer loop
         vertex 0.0287846287786922 -0.0106019581497935 0.105113239515607
         vertex 0.0302347464595954 -0.0106019581497935 0.104249590844354
         vertex 0.0287846287786922 -0.0105019581497935 0.105113239515607
      endloop
   endfacet
   facet normal 0.511695314847146 0 0.859166983050141
      outer loop
         vertex 0.0287846287786922 -0.0105019581497935 0.105113239515607
         vertex 0.0302347464595954 -0.0106019581497935 0.104249590844354
         vertex 0.0302347464595954 -0.0105019581497935 0.104249590844354
      endloop
   endfacet
   facet normal 0.542229077802688 0 0.840230698787688
      outer loop
         vertex 0.0302347464595954 -0.0106019581497935 0.104249590844354
         vertex 0.0311320233024814 -0.0106019581497935 0.103670547974635
         vertex 0.0302347464595954 -0.0105019581497935 0.104249590844354
      endloop
   endfacet
   facet normal 0.542229077802688 0 0.840230698787688
      outer loop
         vertex 0.0302347464595954 -0.0105019581497935 0.104249590844354
         vertex 0.0311320233024814 -0.0106019581497935 0.103670547974635
         vertex 0.0311320233024814 -0.0105019581497935 0.103670547974635
      endloop
   endfacet
   facet normal 0.542229077802594 0 0.840230698787749
      outer loop
         vertex 0.0311320233024814 -0.0106019581497935 0.103670547974635
         vertex 0.0320293001453675 -0.0106019581497935 0.103091505104917
         vertex 0.0311320233024814 -0.0105019581497935 0.103670547974635
      endloop
   endfacet
   facet normal 0.542229077802594 0 0.840230698787749
      outer loop
         vertex 0.0311320233024814 -0.0105019581497935 0.103670547974635
         vertex 0.0320293001453675 -0.0106019581497935 0.103091505104917
         vertex 0.0320293001453675 -0.0105019581497935 0.103091505104917
      endloop
   endfacet
   facet normal 1 0 -6.44626593277304E-16
      outer loop
         vertex 0.0320293001453675 -0.0106019581497935 0.103091505104917
         vertex 0.0320293001453675 -0.0106019581497935 0.0923272983900966
         vertex 0.0320293001453675 -0.0105019581497935 0.103091505104917
      endloop
   endfacet
   facet normal 1 0 -6.44626593277304E-16
      outer loop
         vertex 0.0320293001453675 -0.0105019581497935 0.103091505104917
         vertex 0.0320293001453675 -0.0106019581497935 0.0923272983900966
         vertex 0.0320293001453675 -0.0105019581497935 0.0923272983900966
      endloop
   endfacet
   facet normal 1 0 0
      outer loop
         vertex 0.0320293001453675 -0.0106019581497935 0.0923272983900966
         vertex 0.0320293001453675 -0.0106019581497935 0.0815630916752764
         vertex 0.0320293001453675 -0.0105019581497935 0.0923272983900966
      endloop
   endfacet
   facet normal 1 0 0
      outer loop
         vertex 0.0320293001453675 -0.0105019581497935 0.0923272983900966
         vertex 0.0320293001453675 -0.0106019581497935 0.0815630916752764
         vertex 0.0320293001453675 -0.0105019581497935 0.0815630916752764
      endloop
   endfacet
   facet normal 0 -1 -4.81633236116947E-16
      outer loop
         vertex -0.00497069985463254 -0.0106019581497935 0.115563091675276
         vertex -0.00497967325525943 -0.0106019581497935 0.111961339665879
         vertex -0.0005891322481999 -0.0106019581497935 0.115563091675276
      endloop
   endfacet
   facet normal -3.86375102111335E-16 -1 -1.06414172741981E-17
      outer loop
         vertex -0.0005891322481999 -0.0106019581497935 0.115563091675276
         vertex -0.00497967325525943 -0.0106019581497935 0.111961339665879
         vertex -0.00493043686379978 -0.0106019581497935 0.110173634580398
      endloop
   endfacet
   facet normal 7.55609829495538E-16 -1 -9.30530817496225E-16
      outer loop
         vertex -0.0005891322481999 -0.0106019581497935 0.115563091675276
         vertex -0.00493043686379978 -0.0106019581497935 0.110173634580398
         vertex -0.00481673276221244 -0.0106019581497935 0.108401734597977
      endloop
   endfacet
   facet normal 1.53446027009439E-30 -1 -4.84467806102182E-16
      outer loop
         vertex -0.0005891322481999 -0.0106019581497935 0.115563091675276
         vertex -0.00481673276221244 -0.0106019581497935 0.108401734597977
         vertex 0.00379243535823274 -0.0106019581497935 0.115563091675276
      endloop
   endfacet
   facet normal -3.6807842736975E-16 -1 -4.19749896526197E-17
      outer loop
         vertex 0.00379243535823274 -0.0106019581497935 0.115563091675276
         vertex -0.00481673276221244 -0.0106019581497935 0.108401734597977
         vertex -0.00461707171378815 -0.0106019581497935 0.106650908086304
      endloop
   endfacet
   facet normal -8.83493763438289E-17 -1 -3.05926400591114E-16
      outer loop
         vertex 0.00379243535823274 -0.0106019581497935 0.115563091675276
         vertex -0.00461707171378815 -0.0106019581497935 0.106650908086304
         vertex 0.00611470476768404 -0.0106019581497935 0.114892436728103
      endloop
   endfacet
   facet normal 3.95181927725718E-16 -1 -9.35560792777895E-16
      outer loop
         vertex 0.00611470476768404 -0.0106019581497935 0.114892436728103
         vertex -0.00461707171378815 -0.0106019581497935 0.106650908086304
         vertex -0.0043099644818177 -0.0106019581497935 0.104926423413066
      endloop
   endfacet
   facet normal -1.99825723844492E-15 -1 1.56802924743251E-15
      outer loop
         vertex 0.00611470476768404 -0.0106019581497935 0.114892436728103
         vertex -0.0043099644818177 -0.0106019581497935 0.104926423413066
         vertex -0.00410940316053103 -0.0106019581497935 0.104075705630762
      endloop
   endfacet
   facet normal -2.61881716830043E-16 -1 -7.32143572332715E-17
      outer loop
         vertex -0.00410940316053103 -0.0106019581497935 0.104075705630762
         vertex -0.00387396084377387 -0.0106019581497935 0.103233547883882
         vertex 0.00611470476768404 -0.0106019581497935 0.114892436728103
      endloop
   endfacet
   facet normal -6.88932246684531E-17 -1 -2.38555801072243E-16
      outer loop
         vertex 0.00611470476768404 -0.0106019581497935 0.114892436728103
         vertex -0.00387396084377387 -0.0106019581497935 0.103233547883882
         vertex 0.00843697417713533 -0.0106019581497935 0.11422178178093
      endloop
   endfacet
   facet normal 1.22170758556172E-15 -1 -1.68451179923728E-15
      outer loop
         vertex -0.00387396084377387 -0.0106019581497935 0.103233547883882
         vertex -0.00360257582866859 -0.0106019581497935 0.102400564496618
         vertex 0.00843697417713533 -0.0106019581497935 0.11422178178093
      endloop
   endfacet
   facet normal -1.83197968177121E-15 -1 1.425575738527E-15
      outer loop
         vertex 0.00843697417713533 -0.0106019581497935 0.11422178178093
         vertex -0.00360257582866859 -0.0106019581497935 0.102400564496618
         vertex -0.00329628663836494 -0.0106019581497935 0.101577312619585
      endloop
   endfacet
   facet normal -2.03826078804315E-16 -1 -8.5246948257596E-17
      outer loop
         vertex 0.00843697417713533 -0.0106019581497935 0.11422178178093
         vertex -0.00329628663836494 -0.0106019581497935 0.101577312619585
         vertex -0.00295627632645865 -0.0106019581497935 0.100764345468908
      endloop
   endfacet
   facet normal 3.10243498146286E-15 -1 -2.88437299400027E-15
      outer loop
         vertex -0.00295627632645865 -0.0106019581497935 0.100764345468908
         vertex -0.00258372794654544 -0.0106019581497935 0.0999622162607109
         vertex 0.00843697417713533 -0.0106019581497935 0.11422178178093
      endloop
   endfacet
   facet normal -6.77865689904342E-16 -1 3.72845823133972E-17
      outer loop
         vertex 0.00843697417713533 -0.0106019581497935 0.11422178178093
         vertex -0.00258372794654544 -0.0106019581497935 0.0999622162607109
         vertex 0.0109483332411933 -0.0106019581497935 0.113353880642876
      endloop
   endfacet
   facet normal 1.01632731844815E-15 -1 -1.67467016794131E-15
      outer loop
         vertex -0.00258372794654544 -0.0106019581497935 0.0999622162607109
         vertex -0.00217982455222105 -0.0106019581497935 0.099171478211117
         vertex 0.0109483332411933 -0.0106019581497935 0.113353880642876
      endloop
   endfacet
   facet normal -4.94857939627195E-16 -1 -2.75818413553918E-16
      outer loop
         vertex 0.0109483332411933 -0.0106019581497935 0.113353880642876
         vertex -0.00217982455222105 -0.0106019581497935 0.099171478211117
         vertex -0.00174574919708121 -0.0106019581497935 0.0983926845362508
      endloop
   endfacet
   facet normal -1.24457600398499E-15 -1 3.60292686561049E-16
      outer loop
         vertex 0.0109483332411933 -0.0106019581497935 0.113353880642876
         vertex -0.00174574919708121 -0.0106019581497935 0.0983926845362508
         vertex -0.000791814818738087 -0.0106019581497935 0.0968731431751972
      endloop
   endfacet
   facet normal 4.08343519792189E-16 -1 -8.1717403653626E-16
      outer loop
         vertex 0.0109483332411933 -0.0106019581497935 0.113353880642876
         vertex -0.000791814818738087 -0.0106019581497935 0.0968731431751972
         vertex 0.0134596923052513 -0.0106019581497935 0.112485979504823
      endloop
   endfacet
   facet normal 4.51901420632436E-16 -1 -8.56933995650984E-16
      outer loop
         vertex 0.0134596923052513 -0.0106019581497935 0.112485979504823
         vertex -0.000791814818738087 -0.0106019581497935 0.0968731431751972
         vertex 0.000268610759718093 -0.0106019581497935 0.0954080179065425
      endloop
   endfacet
   facet normal -3.18330261836849E-16 -1 -2.62004157336534E-16
      outer loop
         vertex 0.0134596923052513 -0.0106019581497935 0.112485979504823
         vertex 0.000268610759718093 -0.0106019581497935 0.0954080179065425
         vertex 0.00142606310952149 -0.0106019581497935 0.094001734459279
      endloop
   endfacet
   facet normal -1.50646042072029E-16 -1 -3.71170083110252E-16
      outer loop
         vertex 0.0134596923052513 -0.0106019581497935 0.112485979504823
         vertex 0.00142606310952149 -0.0106019581497935 0.094001734459279
         vertex 0.0158414890386905 -0.0106019581497935 0.111519284538715
      endloop
   endfacet
   facet normal -1.02106298703846E-15 -1 3.45107646410089E-16
      outer loop
         vertex 0.0158414890386905 -0.0106019581497935 0.111519284538715
         vertex 0.00142606310952149 -0.0106019581497935 0.094001734459279
         vertex 0.00267107780190628 -0.0106019581497935 0.0926587185623989
      endloop
   endfacet
   facet normal 1.35532481504307E-15 -1 -1.31433378555933E-15
      outer loop
         vertex 0.0158414890386905 -0.0106019581497935 0.111519284538715
         vertex 0.00267107780190628 -0.0106019581497935 0.0926587185623989
         vertex 0.00399419040810661 -0.0106019581497935 0.0913833959448945
      endloop
   endfacet
   facet normal 4.18574951057675E-16 -1 -7.63180786818582E-16
      outer loop
         vertex 0.0158414890386905 -0.0106019581497935 0.111519284538715
         vertex 0.00399419040810661 -0.0106019581497935 0.0913833959448945
         vertex 0.0182232857721298 -0.0106019581497935 0.110552589572607
      endloop
   endfacet
   facet normal -2.38272384880486E-16 -1 -2.75609761965608E-16
      outer loop
         vertex 0.0182232857721298 -0.0106019581497935 0.110552589572607
         vertex 0.00399419040810661 -0.0106019581497935 0.0913833959448945
         vertex 0.00538593649935665 -0.0106019581497935 0.0901801923357581
      endloop
   endfacet
   facet normal 5.80807473093939E-16 -1 -7.91740195555058E-16
      outer loop
         vertex 0.0182232857721298 -0.0106019581497935 0.110552589572607
         vertex 0.00538593649935665 -0.0106019581497935 0.0901801923357581
         vertex 0.00683685164689057 -0.0106019581497935 0.0890535334639819
      endloop
   endfacet
   facet normal -1.81910318513884E-16 -1 -3.87785908147694E-16
      outer loop
         vertex 0.0182232857721298 -0.0106019581497935 0.110552589572607
         vertex 0.00683685164689057 -0.0106019581497935 0.0890535334639819
         vertex 0.020534208473988 -0.0106019581497935 0.109468536037077
      endloop
   endfacet
   facet normal -1.81751993667271E-15 -1 7.0961922268876E-16
      outer loop
         vertex 0.020534208473988 -0.0106019581497935 0.109468536037077
         vertex 0.00683685164689057 -0.0106019581497935 0.0890535334639819
         vertex 0.00833747142194253 -0.0106019581497935 0.0880078450585583
      endloop
   endfacet
   facet normal 6.82439599037423E-16 -1 -7.1118074728102E-16
      outer loop
         vertex 0.020534208473988 -0.0106019581497935 0.109468536037077
         vertex 0.00833747142194253 -0.0106019581497935 0.0880078450585583
         vertex 0.00987851364686144 -0.0106019581497935 0.0870473926833852
      endloop
   endfacet
   facet normal 4.65428506851152E-16 -1 -6.08045776153083E-16
      outer loop
         vertex 0.020534208473988 -0.0106019581497935 0.109468536037077
         vertex 0.00987851364686144 -0.0106019581497935 0.0870473926833852
         vertex 0.0228451311758463 -0.0106019581497935 0.108384482501548
      endloop
   endfacet
   facet normal 1.51200100887592E-15 -1 -1.24405122327626E-15
      outer loop
         vertex 0.0228451311758463 -0.0106019581497935 0.108384482501548
         vertex 0.00987851364686144 -0.0106019581497935 0.0870473926833852
         vertex 0.0114540731336501 -0.0106019581497935 0.0861734741517013
      endloop
   endfacet
   facet normal -1.83728579185702E-16 -1 -3.74385431555782E-16
      outer loop
         vertex 0.0228451311758463 -0.0106019581497935 0.108384482501548
         vertex 0.0114540731336501 -0.0106019581497935 0.0861734741517013
         vertex 0.0130612228501878 -0.0106019581497935 0.0853847700273685
      endloop
   endfacet
   facet normal -1.9761088785366E-16 -1 -3.68479999672305E-16
      outer loop
         vertex 0.0228451311758463 -0.0106019581497935 0.108384482501548
         vertex 0.0130612228501878 -0.0106019581497935 0.0853847700273685
         vertex 0.0250898211368177 -0.0106019581497935 0.107180685344203
      endloop
   endfacet
   facet normal -1.66235250204593E-16 -1 -3.85795397341151E-16
      outer loop
         vertex 0.0250898211368177 -0.0106019581497935 0.107180685344203
         vertex 0.0130612228501878 -0.0106019581497935 0.0853847700273685
         vertex 0.0146971378535342 -0.0106019581497935 0.0846798711567004
      endloop
   endfacet
   facet normal -1.4771639349578E-16 -1 -3.94348892825332E-16
      outer loop
         vertex 0.0250898211368177 -0.0106019581497935 0.107180685344203
         vertex 0.0146971378535342 -0.0106019581497935 0.0846798711567004
         vertex 0.0163589932007489 -0.0106019581497935 0.0840573683860106
      endloop
   endfacet
   facet normal 2.01661439617042E-17 -1 -4.57737443467181E-16
      outer loop
         vertex 0.0250898211368177 -0.0106019581497935 0.107180685344203
         vertex 0.0163589932007489 -0.0106019581497935 0.0840573683860106
         vertex 0.0320293001453675 -0.0106019581497935 0.0923272983900966
      endloop
   endfacet
   facet normal -8.37972571546255E-17 -1 -2.60742014764102E-16
      outer loop
         vertex 0.0320293001453675 -0.0106019581497935 0.0923272983900966
         vertex 0.0163589932007489 -0.0106019581497935 0.0840573683860106
         vertex 0.0180439639488914 -0.0106019581497935 0.0835158525616128
      endloop
   endfacet
   facet normal 6.3681656569986E-16 -1 -1.40448468499305E-15
      outer loop
         vertex 0.0320293001453675 -0.0106019581497935 0.0923272983900966
         vertex 0.0180439639488914 -0.0106019581497935 0.0835158525616128
         vertex 0.0197492251550214 -0.0106019581497935 0.0830539145298207
      endloop
   endfacet
   facet normal 6.81042315414111E-16 -1 -1.46304966312598E-15
      outer loop
         vertex 0.0197492251550214 -0.0106019581497935 0.0830539145298207
         vertex 0.0214719518761984 -0.0106019581497935 0.0826701451369478
         vertex 0.0320293001453675 -0.0106019581497935 0.0923272983900966
      endloop
   endfacet
   facet normal -9.43128961661443E-16 -1 3.12519324067714E-16
      outer loop
         vertex 0.0320293001453675 -0.0106019581497935 0.0923272983900966
         vertex 0.0214719518761984 -0.0106019581497935 0.0826701451369478
         vertex 0.0232093403259655 -0.0106019581497935 0.0823625094039186
      endloop
   endfacet
   facet normal 8.19988512765315E-16 -1 -1.24803808491499E-15
      outer loop
         vertex 0.0320293001453675 -0.0106019581497935 0.0923272983900966
         vertex 0.0232093403259655 -0.0106019581497935 0.0823625094039186
         vertex 0.0249588225122506 -0.0106019581497935 0.0821219973686181
      endloop
   endfacet
   facet normal -2.83564659250547E-16 -1 -4.83469944957978E-16
      outer loop
         vertex 0.0249588225122506 -0.0106019581497935 0.0821219973686181
         vertex 0.0320293001453675 -0.0106019581497935 0.0815630916752764
         vertex 0.0320293001453675 -0.0106019581497935 0.0923272983900966
      endloop
   endfacet
   facet normal -2.24531962047279E-15 -1 -4.83469944957977E-16
      outer loop
         vertex 0.0320293001453675 -0.0106019581497935 0.103091505104917
         vertex 0.0311320233024814 -0.0106019581497935 0.103670547974635
         vertex 0.0320293001453675 -0.0106019581497935 0.0923272983900966
      endloop
   endfacet
   facet normal 1.82932043869573E-15 -1 -1.61156648319317E-16
      outer loop
         vertex 0.0320293001453675 -0.0106019581497935 0.0923272983900966
         vertex 0.0311320233024814 -0.0106019581497935 0.103670547974635
         vertex 0.0302347464595954 -0.0106019581497935 0.104249590844354
      endloop
   endfacet
   facet normal -2.85571761063504E-16 -1 -4.79492036135877E-16
      outer loop
         vertex 0.0320293001453675 -0.0106019581497935 0.0923272983900966
         vertex 0.0302347464595954 -0.0106019581497935 0.104249590844354
         vertex 0.0287846287786922 -0.0106019581497935 0.105113239515607
      endloop
   endfacet
   facet normal 1.12368327731975E-15 -1 -1.21867249153086E-16
      outer loop
         vertex 0.0287846287786922 -0.0106019581497935 0.105113239515607
         vertex 0.0273345110977891 -0.0106019581497935 0.105976888186859
         vertex 0.0320293001453675 -0.0106019581497935 0.0923272983900966
      endloop
   endfacet
   facet normal -3.34287660154479E-16 -1 -6.23337702907322E-16
      outer loop
         vertex 0.0320293001453675 -0.0106019581497935 0.0923272983900966
         vertex 0.0273345110977891 -0.0106019581497935 0.105976888186859
         vertex 0.0250898211368177 -0.0106019581497935 0.107180685344203
      endloop
   endfacet
   facet normal 2.24531962047279E-15 1 4.83469944957977E-16
      outer loop
         vertex 0.0320293001453675 -0.0105019581497935 0.103091505104917
         vertex 0.0320293001453675 -0.0105019581497935 0.0923272983900966
         vertex 0.0311320233024814 -0.0105019581497935 0.103670547974635
      endloop
   endfacet
   facet normal -1.82932043869573E-15 1 1.61156648319317E-16
      outer loop
         vertex 0.0311320233024814 -0.0105019581497935 0.103670547974635
         vertex 0.0320293001453675 -0.0105019581497935 0.0923272983900966
         vertex 0.0302347464595954 -0.0105019581497935 0.104249590844354
      endloop
   endfacet
   facet normal 3.82172349334639E-17 1 4.83469944957978E-16
      outer loop
         vertex 0.0320293001453675 -0.0105019581497935 0.0815630916752764
         vertex 0.0249588225122485 -0.0105019581497935 0.0821219973686183
         vertex 0.0320293001453675 -0.0105019581497935 0.0923272983900966
      endloop
   endfacet
   facet normal 9.69342832157914E-16 1 -1.61636230248826E-16
      outer loop
         vertex 0.0320293001453675 -0.0105019581497935 0.0923272983900966
         vertex 0.0249588225122485 -0.0105019581497935 0.0821219973686183
         vertex 0.0232093403259655 -0.0105019581497935 0.0823625094039186
      endloop
   endfacet
   facet normal 1.06593778711032E-16 1 6.01993787023334E-16
      outer loop
         vertex 0.0320293001453675 -0.0105019581497935 0.0923272983900966
         vertex 0.0232093403259655 -0.0105019581497935 0.0823625094039186
         vertex 0.0214719518762262 -0.0105019581497935 0.0826701451369423
      endloop
   endfacet
   facet normal -1.49080207011428E-15 1 2.34829146478059E-15
      outer loop
         vertex 0.0214719518762262 -0.0105019581497935 0.0826701451369423
         vertex 0.0197492251550214 -0.0105019581497935 0.0830539145298207
         vertex 0.0320293001453675 -0.0105019581497935 0.0923272983900966
      endloop
   endfacet
   facet normal 7.45907293983281E-17 1 2.75354416449395E-16
      outer loop
         vertex 0.0320293001453675 -0.0105019581497935 0.0923272983900966
         vertex 0.0197492251550214 -0.0105019581497935 0.0830539145298207
         vertex 0.0180439639488914 -0.0105019581497935 0.0835158525616128
      endloop
   endfacet
   facet normal 8.37972571546237E-17 1 2.60742014764105E-16
      outer loop
         vertex 0.0320293001453675 -0.0105019581497935 0.0923272983900966
         vertex 0.0180439639488914 -0.0105019581497935 0.0835158525616128
         vertex 0.0163589932007489 -0.0105019581497935 0.0840573683860106
      endloop
   endfacet
   facet normal -2.01661439617049E-17 1 4.57737443467181E-16
      outer loop
         vertex 0.0320293001453675 -0.0105019581497935 0.0923272983900966
         vertex 0.0163589932007489 -0.0105019581497935 0.0840573683860106
         vertex 0.0250898211368177 -0.0105019581497935 0.107180685344203
      endloop
   endfacet
   facet normal 1.47716393495772E-16 1 3.94348892825335E-16
      outer loop
         vertex 0.0250898211368177 -0.0105019581497935 0.107180685344203
         vertex 0.0163589932007489 -0.0105019581497935 0.0840573683860106
         vertex 0.0146971378535355 -0.0105019581497935 0.0846798711566998
      endloop
   endfacet
   facet normal -7.1815366285089E-16 1 7.94277232533426E-16
      outer loop
         vertex 0.0250898211368177 -0.0105019581497935 0.107180685344203
         vertex 0.0146971378535355 -0.0105019581497935 0.0846798711566998
         vertex 0.0130612228501885 -0.0105019581497935 0.0853847700273682
      endloop
   endfacet
   facet normal -1.02796986797083E-15 1 9.65256731210283E-16
      outer loop
         vertex 0.0250898211368177 -0.0105019581497935 0.107180685344203
         vertex 0.0130612228501885 -0.0105019581497935 0.0853847700273682
         vertex 0.0228451311758463 -0.0105019581497935 0.108384482501548
      endloop
   endfacet
   facet normal 1.1073136194815E-15 1 5.69228590378288E-17
      outer loop
         vertex 0.0228451311758463 -0.0105019581497935 0.108384482501548
         vertex 0.0130612228501885 -0.0105019581497935 0.0853847700273682
         vertex 0.0114540731336501 -0.0105019581497935 0.0861734741517013
      endloop
   endfacet
   facet normal -5.87366493978064E-16 1 9.26050420979747E-16
      outer loop
         vertex 0.0228451311758463 -0.0105019581497935 0.108384482501548
         vertex 0.0114540731336501 -0.0105019581497935 0.0861734741517013
         vertex 0.00987851364686143 -0.0105019581497935 0.0870473926833852
      endloop
   endfacet
   facet normal 7.91884844043845E-16 1 8.78749842691887E-17
      outer loop
         vertex 0.0228451311758463 -0.0105019581497935 0.108384482501548
         vertex 0.00987851364686143 -0.0105019581497935 0.0870473926833852
         vertex 0.020534208473988 -0.0105019581497935 0.109468536037077
      endloop
   endfacet
   facet normal 1.09165729432401E-15 1 -5.45924937436801E-17
      outer loop
         vertex 0.020534208473988 -0.0105019581497935 0.109468536037077
         vertex 0.00987851364686143 -0.0105019581497935 0.0870473926833852
         vertex 0.00833747142194249 -0.0105019581497935 0.0880078450585583
      endloop
   endfacet
   facet normal -1.37369150182664E-15 1 1.34653718275763E-15
      outer loop
         vertex 0.020534208473988 -0.0105019581497935 0.109468536037077
         vertex 0.00833747142194249 -0.0105019581497935 0.0880078450585583
         vertex 0.0068368516468862 -0.0105019581497935 0.0890535334639851
      endloop
   endfacet
   facet normal 1.5159193209491E-16 1 3.23154923456426E-16
      outer loop
         vertex 0.020534208473988 -0.0105019581497935 0.109468536037077
         vertex 0.0068368516468862 -0.0105019581497935 0.0890535334639851
         vertex 0.0182232857721298 -0.0105019581497935 0.110552589572607
      endloop
   endfacet
   facet normal -6.25204469153185E-16 1 7.34565592224845E-16
      outer loop
         vertex 0.0182232857721298 -0.0105019581497935 0.110552589572607
         vertex 0.0068368516468862 -0.0105019581497935 0.0890535334639851
         vertex 0.00538593649935665 -0.0105019581497935 0.0901801923357581
      endloop
   endfacet
   facet normal 1.90617907904592E-16 1 2.20487809572359E-16
      outer loop
         vertex 0.0182232857721298 -0.0105019581497935 0.110552589572607
         vertex 0.00538593649935665 -0.0105019581497935 0.0901801923357581
         vertex 0.00399419040806579 -0.0105019581497935 0.0913833959449318
      endloop
   endfacet
   facet normal -4.468005534039E-16 1 6.93636980525442E-16
      outer loop
         vertex 0.0182232857721298 -0.0105019581497935 0.110552589572607
         vertex 0.00399419040806579 -0.0105019581497935 0.0913833959449318
         vertex 0.0158414890386905 -0.0105019581497935 0.111519284538715
      endloop
   endfacet
   facet normal 1.10157038799615E-15 1 -2.173738670123E-16
      outer loop
         vertex 0.0158414890386905 -0.0105019581497935 0.111519284538715
         vertex 0.00399419040806579 -0.0105019581497935 0.0913833959449318
         vertex 0.00267107780190628 -0.0105019581497935 0.0926587185623989
      endloop
   endfacet
   facet normal -1.24987792374688E-15 1 1.42465221569315E-15
      outer loop
         vertex 0.0158414890386905 -0.0105019581497935 0.111519284538715
         vertex 0.00267107780190628 -0.0105019581497935 0.0926587185623989
         vertex 0.00142606310952149 -0.0105019581497935 0.094001734459279
      endloop
   endfacet
   facet normal -4.25456752382487E-16 1 7.46225022601033E-16
      outer loop
         vertex 0.0158414890386905 -0.0105019581497935 0.111519284538715
         vertex 0.00142606310952149 -0.0105019581497935 0.094001734459279
         vertex 0.0134596923052513 -0.0105019581497935 0.112485979504823
      endloop
   endfacet
   facet normal 1.15515936291949E-15 1 -2.82789047785564E-16
      outer loop
         vertex 0.0134596923052513 -0.0105019581497935 0.112485979504823
         vertex 0.00142606310952149 -0.0105019581497935 0.094001734459279
         vertex 0.000268610759718093 -0.0105019581497935 0.0954080179065425
      endloop
   endfacet
   facet normal 4.07343783615059E-16 1 2.94826508430342E-16
      outer loop
         vertex 0.0134596923052513 -0.0105019581497935 0.112485979504823
         vertex 0.000268610759718093 -0.0105019581497935 0.0954080179065425
         vertex -0.000791814818738091 -0.0105019581497935 0.0968731431751972
      endloop
   endfacet
   facet normal 1.75139629343178E-16 1 5.06784098259562E-16
      outer loop
         vertex 0.0134596923052513 -0.0105019581497935 0.112485979504823
         vertex -0.000791814818738091 -0.0105019581497935 0.0968731431751972
         vertex 0.0109483332411933 -0.0105019581497935 0.113353880642876
      endloop
   endfacet
   facet normal 4.7125587357521E-16 1 2.95843989720573E-16
      outer loop
         vertex 0.0109483332411933 -0.0105019581497935 0.113353880642876
         vertex -0.000791814818738091 -0.0105019581497935 0.0968731431751972
         vertex -0.00174574919708121 -0.0105019581497935 0.0983926845362508
      endloop
   endfacet
   facet normal -1.08957255388669E-15 1 1.62015553466644E-15
      outer loop
         vertex 0.0109483332411933 -0.0105019581497935 0.113353880642876
         vertex -0.00174574919708121 -0.0105019581497935 0.0983926845362508
         vertex -0.00217982455222106 -0.0105019581497935 0.099171478211117
      endloop
   endfacet
   facet normal 4.25752746358526E-16 1 2.17471486904293E-16
      outer loop
         vertex -0.00217982455222106 -0.0105019581497935 0.099171478211117
         vertex -0.00258372794655298 -0.0105019581497935 0.0999622162607264
         vertex 0.0109483332411933 -0.0105019581497935 0.113353880642876
      endloop
   endfacet
   facet normal 1.65900050958946E-16 1 4.80048450723285E-16
      outer loop
         vertex 0.0109483332411933 -0.0105019581497935 0.113353880642876
         vertex -0.00258372794655298 -0.0105019581497935 0.0999622162607264
         vertex 0.00843697417713533 -0.0105019581497935 0.11422178178093
      endloop
   endfacet
   facet normal -3.00411442340439E-15 1 2.93003791220027E-15
      outer loop
         vertex -0.00258372794655298 -0.0105019581497935 0.0999622162607264
         vertex -0.00295627632645933 -0.0105019581497935 0.10076434546891
         vertex 0.00843697417713533 -0.0105019581497935 0.11422178178093
      endloop
   endfacet
   facet normal 3.67977024844183E-15 1 -2.72863069583652E-15
      outer loop
         vertex 0.00843697417713533 -0.0105019581497935 0.11422178178093
         vertex -0.00295627632645933 -0.0105019581497935 0.10076434546891
         vertex -0.00329628663836494 -0.0105019581497935 0.101577312619585
      endloop
   endfacet
   facet normal -2.71415514197701E-15 1 3.20452421034049E-15
      outer loop
         vertex 0.00843697417713533 -0.0105019581497935 0.11422178178093
         vertex -0.00329628663836494 -0.0105019581497935 0.101577312619585
         vertex -0.00360257582866859 -0.0105019581497935 0.102400564496618
      endloop
   endfacet
   facet normal 1.87669554685181E-15 1 -1.47111748611039E-15
      outer loop
         vertex -0.00360257582866859 -0.0105019581497935 0.102400564496618
         vertex -0.0038739608437743 -0.0105019581497935 0.103233547883883
         vertex 0.00843697417713533 -0.0105019581497935 0.11422178178093
      endloop
   endfacet
   facet normal 7.02171212149311E-16 1 -1.55210589653969E-16
      outer loop
         vertex 0.00843697417713533 -0.0105019581497935 0.11422178178093
         vertex -0.0038739608437743 -0.0105019581497935 0.103233547883883
         vertex 0.00611470476768403 -0.0105019581497935 0.114892436728103
      endloop
   endfacet
   facet normal 3.9282257524508E-16 1 1.09821535849892E-16
      outer loop
         vertex -0.0038739608437743 -0.0105019581497935 0.103233547883883
         vertex -0.00410940316053102 -0.0105019581497935 0.104075705630762
         vertex 0.00611470476768403 -0.0105019581497935 0.114892436728103
      endloop
   endfacet
   facet normal 4.07396628980034E-16 1 9.60459601240248E-17
      outer loop
         vertex 0.00611470476768403 -0.0105019581497935 0.114892436728103
         vertex -0.00410940316053102 -0.0105019581497935 0.104075705630762
         vertex -0.00430996448181769 -0.0105019581497935 0.104926423413066
      endloop
   endfacet
   facet normal -3.95181927725727E-16 1 9.35560792777901E-16
      outer loop
         vertex 0.00611470476768403 -0.0105019581497935 0.114892436728103
         vertex -0.00430996448181769 -0.0105019581497935 0.104926423413066
         vertex -0.00461707171378815 -0.0105019581497935 0.106650908086304
      endloop
   endfacet
   facet normal 8.83493763438287E-17 1 3.05926400591112E-16
      outer loop
         vertex 0.00611470476768403 -0.0105019581497935 0.114892436728103
         vertex -0.00461707171378815 -0.0105019581497935 0.106650908086304
         vertex 0.00379243535823274 -0.0105019581497935 0.115563091675276
      endloop
   endfacet
   facet normal -5.68731273074208E-16 1 9.25945536530624E-16
      outer loop
         vertex 0.00379243535823274 -0.0105019581497935 0.115563091675276
         vertex -0.00461707171378815 -0.0105019581497935 0.106650908086304
         vertex -0.00481673276221244 -0.0105019581497935 0.108401734597977
      endloop
   endfacet
   facet normal -7.67230135047197E-31 1 2.42233903051091E-16
      outer loop
         vertex 0.00379243535823274 -0.0105019581497935 0.115563091675276
         vertex -0.00481673276221244 -0.0105019581497935 0.108401734597977
         vertex -0.0005891322481999 -0.0105019581497935 0.115563091675276
      endloop
   endfacet
   facet normal -1.1257118077371E-15 1 9.06781106276708E-16
      outer loop
         vertex -0.0005891322481999 -0.0105019581497935 0.115563091675276
         vertex -0.00481673276221244 -0.0105019581497935 0.108401734597977
         vertex -0.00493043686379798 -0.0105019581497935 0.110173634580357
      endloop
   endfacet
   facet normal 1.16481854431274E-15 1 -9.38282285895863E-16
      outer loop
         vertex -0.0005891322481999 -0.0105019581497935 0.115563091675276
         vertex -0.00493043686379798 -0.0105019581497935 0.110173634580357
         vertex -0.00497967325525937 -0.0105019581497935 0.111961339665875
      endloop
   endfacet
   facet normal 0 1 4.81633236116355E-16
      outer loop
         vertex -0.00497967325525937 -0.0105019581497935 0.111961339665875
         vertex -0.00497069985463254 -0.0105019581497935 0.115563091675276
         vertex -0.0005891322481999 -0.0105019581497935 0.115563091675276
      endloop
   endfacet
   facet normal -6.9688772100593E-16 1 1.41574187703302E-16
      outer loop
         vertex 0.0250898211368177 -0.0105019581497935 0.107180685344203
         vertex 0.0273345110977891 -0.0105019581497935 0.105976888186859
         vertex 0.0320293001453675 -0.0105019581497935 0.0923272983900966
      endloop
   endfacet
   facet normal 2.85571761063556E-16 1 4.79492036135891E-16
      outer loop
         vertex 0.0320293001453675 -0.0105019581497935 0.0923272983900966
         vertex 0.0273345110977891 -0.0105019581497935 0.105976888186859
         vertex 0.0287846287786922 -0.0105019581497935 0.105113239515607
      endloop
   endfacet
   facet normal 2.85571761063504E-16 1 4.79492036135877E-16
      outer loop
         vertex 0.0320293001453675 -0.0105019581497935 0.0923272983900966
         vertex 0.0287846287786922 -0.0105019581497935 0.105113239515607
         vertex 0.0302347464595954 -0.0105019581497935 0.104249590844354
      endloop
   endfacet
endsolid
